<svg version="1.1" class="symbio-logo" xmlns="http://www.w3.org/2000/svg" x="0px" y="0px"
     width="288px" height="70.877px" viewBox="0 0 288 70.877" enable-background="new 0 0 288 70.877" xml:space="preserve">
<polyline fill="#FFF" points="208.993,17.039 208.993,53.927 201.899,53.927 201.899,18.914 208.993,17.039 "/>
<path fill="#FFF" d="M169.181,21.607V0.878l-7.049,1.874c0,0-0.046,22.947-0.046,48.876c11.494,6.553,29.306,3.337,32.131-12.284
    C197.101,19.34,180.302,13.252,169.181,21.607 M169.217,48.015c0-2.83-0.035-16.137-0.035-20.89
    c1.772-1.544,3.056-2.268,5.912-3.024c9.025-0.828,12.066,5.357,11.848,12.184C187.211,43.957,181.794,51.832,169.217,48.015z"/>
<path fill="#FFF" d="M235.109,18.188c-6.859-0.564-15.368,4.81-17.837,13.007c-3.558,16.516,10.37,27.063,25.227,22.537
    C261.087,45.786,257.402,18.173,235.109,18.188 M238.293,48.673c-15.659,2.965-19.625-21.156-4.859-24.572
    C250.124,22.552,250.688,45.479,238.293,48.673z"/>
<path fill="#FFF" d="M151.901,53.927c0,0-4.63,0-7.13,0c0-7.093,0.021-16.945,0.021-23.923c0-5.967-10.107-9.71-15.029,0.01
    c0,8.278,0,15.635,0,23.913c-2.494,0-4.565,0-7.06,0c0-6.091,0.006-22.428,0.006-23.974c0-7.094-10.789-8.58-15.021,0.061
    c0,8.278,0,23.98,0,23.98h-7.093l0.02-35.08l7.073-1.875c0,0,0.036,5.718,0.036,7.031c2.632-6.081,16.559-9.521,21.152,0.031
    c9.041-10.717,22.975-5.75,22.975,5.855C151.851,36.274,151.901,53.927,151.901,53.927"/>
<path fill="#FFF" d="M46.329,18.158c5.698,0,8.928,1.758,9.327,2.463c0,2.1,0,4.4,0,6.504
    c-2.382-3.085-14.581-5.372-14.581,0.063c0.154,6.256,15.378,5.09,16.16,16.227c0,13.872-17.606,12.818-23.652,8.607
    c0-2.822,0.066-4.401,0.066-6.77c2.458,1.698,7.747,5.172,14.126,3.157c2.76-1.384,2.79-3.813,2.167-5.124
    c-1.088-5.326-15.532-4.454-15.965-15.209C34.364,21.58,38.857,18.638,46.329,18.158"/>
<path fill="#FFF" d="M59.412,18.914h9.256c0,0,6.041,13.334,9.062,20.032c0.133,0,0.266,0,0.398,0
    c0-0.243,3.741-8.587,9.163-20.032c2.366,0,5.024,0,7.392,0c-7.887,17.34-16.064,34.62-23.95,51.963c-3.025,0-5.345,0-7.588,0
    c3.551-8.017,7.297-15.504,10.839-23.521c-3.808-7.75-11.821-23.781-11.821-23.781L59.412,18.914"/>
<path fill="#EF8A00" d="M205.35,0c3.138,0,5.678,2.544,5.678,5.682c0,3.138-2.54,5.683-5.678,5.683c-3.14,0-5.685-2.545-5.685-5.683
    C199.666,2.544,202.211,0,205.35,0"/>
<polyline fill="#F19300" points="20.877,28.169 6.746,35.437 20.877,42.707 19.973,44.522 2.709,35.437 19.973,26.355 
    20.877,28.169 "/>
<path fill="#EF8A00" d="M0,35.437L20.524,46.24l2.039-4.087c0,0-9.94-5.111-13.058-6.716c3.117-1.605,13.058-6.716,13.058-6.716
    l-2.039-4.083L0,35.437"/>
<polyline fill="#EC7A01" points="267.117,28.169 281.249,35.437 267.117,42.707 268.027,44.522 285.291,35.437 268.027,26.355 
    267.117,28.169 "/>
<path fill="#EF8A00" d="M265.431,28.721c0,0,9.939,5.111,13.062,6.716c-3.123,1.605-13.062,6.716-13.062,6.716l2.045,4.087
    L288,35.437l-20.523-10.799L265.431,28.721"/>
</svg>