<svg version="1.1" id="speedometer" xmlns="http://www.w3.org/2000/svg" xmlns:xlink="http://www.w3.org/1999/xlink" x="0px" y="0px"
     width="316px" height="185px" viewBox="0 0 316 185" enable-background="new 0 0 316 185" xml:space="preserve">
<path fill="#EE881A" d="M158,0C70.878,0,0,70.879,0,158c0,2.762,2.239,5,5,5h43.714c2.761,0,5-2.238,5-5
    c0-57.503,46.782-104.285,104.286-104.285c57.504,0,104.286,46.782,104.286,104.285c0,2.762,2.238,5,5,5H311c2.762,0,5-2.238,5-5
    C316,70.879,245.121,0,158,0z"/>
<path id="ticker" fill="#3D464D" d="M169.813,148.957L158,19.5l-11.813,129.457C146.072,149.623,146,150.303,146,151c0,6.628,5.373,12,12,12
    s12-5.372,12-12C170,150.303,169.928,149.623,169.813,148.957z"/>
</svg>
